/* XPM */
static char * chat_xpm[] = {
"16 16 17 1",
" 	c None",
".	c #7D7D7D",
"+	c #787878",
"@	c #FCFCFC",
"#	c #FFFFFF",
"$	c #EFEFEF",
"%	c #A5A5A5",
"&	c #FAFAFA",
"*	c #FDFDFD",
"=	c #FEFEFE",
"-	c #C6C6C6",
";	c #818181",
">	c #797979",
",	c #7B7B7B",
"'	c #828282",
")	c #808080",
"!	c #7A7A7A",
"     .+++++++++.",
"     +@#######@+",
"     +#$$$$$$$#+",
"     +#$$$$$$$#+",
"     +#$$$$$$$#+",
".+++++++++%$$$#+",
"+@#######@+$$$#+",
"+#$$$$$$$#+&*=@+",
"+#$$$$$$$#+-@;>.",
"+#$$$$$$$#+,'+  ",
"+#$$$$$$$#+  +  ",
"+#$$$$$$$#+     ",
"+@=*&====@+     ",
".>;@-).,!>.     ",
"  +',           ",
"  +             "};
